#!OML:ASF F:\twosubjects\two\wednesday\Session 1\rory1.ASF
:FULLY-SPECIFIED
:DEGREES
1
root 9.32538 18.152 -5.88228 4.72725 -13.5954 0.827454
lowerback 0.361174 -0.234145 -4.19712
upperback 0.286967 -0.32323 0.0745477
thorax 0.115731 -0.168686 2.43004
lowerneck -15.2008 0.781906 -0.0454337
upperneck 15.8747 1.80523 -3.92191
head 7.42519 0.483081 -1.08375
rclavicle 1.01007e-014 1.98785e-015
rhumerus 3.47887 35.4636 -86.8462
rradius 92.4194
rwrist -6.67072
rhand -26.3236 22.7908
rfingers 7.12502
rthumb 0.233195 -7.1888
lclavicle 1.01007e-014 1.98785e-015
lhumerus 32.0783 -1.30493 59.3906
lradius 54.5548
lwrist 35.2236
lhand -2.55579 25.2329
lfingers 7.12502
lthumb 23.1402 53.8631
rfemur -18.4036 12.4698 15.242
rtibia 32.9935
rfoot -15.7666 -16.5931
rtoes 3.85205
lfemur -18.0396 -4.9331 -16.5531
ltibia 33.7634
lfoot -21.9587 9.18554
ltoes -10.7254
2
root 9.3289 18.1511 -5.88803 4.88766 -13.5074 0.572173
lowerback 0.383529 -0.320784 -3.92116
upperback 0.0735225 -0.443364 0.199311
thorax -0.108293 -0.220739 2.40461
lowerneck -14.852 0.751311 -0.441564
upperneck 15.9588 1.80418 -3.66884
head 7.38625 0.484454 -0.936544
rclavicle -2.57426e-014 -6.4605e-015
rhumerus 3.57816 35.7982 -87.0039
rradius 91.7104
rwrist -6.49472
rhand -26.2304 22.996
rfingers 7.12502
rthumb 0.323253 -6.98346
lclavicle -2.57426e-014 -6.4605e-015
lhumerus 31.21 -2.04879 58.8059
lradius 55.1937
lwrist 35.2469
lhand -1.33604 25.813
lfingers 7.12502
lthumb 24.3101 54.2914
rfemur -18.4324 12.4336 15.4996
rtibia 32.8521
rfoot -15.6461 -16.6627
rtoes 3.16931
lfemur -18.2816 -4.88795 -16.2647
ltibia 33.936
lfoot -21.9107 9.13572
ltoes -10.2627
3
root 9.33358 18.1483 -5.89022 4.97362 -13.4201 0.515461
lowerback 0.359732 -0.367063 -3.90156
upperback -0.059309 -0.506368 0.305406
thorax -0.226038 -0.247869 2.50332
lowerneck -14.7055 0.666941 -0.755589
upperneck 16.0472 1.73396 -3.52891
head 7.38486 0.444659 -0.847103
rclavicle -1.15668e-014 1.86858e-014
rhumerus 3.755 35.9787 -87.048
rradius 91.1913
rwrist -6.11901
rhand -26.5199 22.2099
rfingers 7.12502
rthumb 0.0435956 -7.76988
lclavicle -1.15668e-014 1.86858e-014
lhumerus 30.3609 -2.9647 58.2568
lradius 56.0309
lwrist 35.4792
lhand -1.61108 25.6016
lfingers 7.12502
lthumb 24.0464 54.1152
rfemur -18.4902 12.487 15.5234
rtibia 32.8441
rfoot -15.9027 -16.7887
rtoes 3.06791
lfemur -18.402 -4.84565 -16.2052
ltibia 33.941
lfoot -21.9789 9.05413
ltoes -10.9891
4
root 9.33669 18.1466 -5.88237 4.82632 -13.302 0.857979
lowerback 0.0601636 -0.261233 -4.23108
upperback 0.165646 -0.347601 0.145099
thorax 0.162432 -0.17999 2.52052
lowerneck -14.9096 0.457202 -0.638966
upperneck 16.0358 1.41253 -3.46339
head 7.41152 0.302976 -0.878851
rclavicle -3.98315e-014 6.85807e-015
rhumerus 4.39979 35.5779 -86.7842
rradius 90.6883
rwrist -5.72898
rhand -27.1284 21.6689
rfingers 7.12502
rthumb -0.544119 -8.31014
lclavicle -3.98315e-014 6.85807e-015
lhumerus 30.52 -3.96599 58.0397
lradius 56.7
lwrist 35.5521
lhand -2.87424 25.2791
lfingers 7.12502
lthumb 22.8347 53.9474
rfemur -18.355 12.1524 15.1483
rtibia 32.8052
rfoot -16.1599 -16.5714
rtoes 3.08147
lfemur -18.3435 -4.73708 -16.6132
ltibia 34.0055
lfoot -22.019 8.83442
ltoes -11.4825
5
root 9.33848 18.1471 -5.8827 4.76018 -13.2311 0.917977
lowerback -0.0324577 -0.222183 -4.30285
upperback 0.208735 -0.289811 0.029111
thorax 0.254065 -0.153766 2.44112
lowerneck -14.7298 0.374381 -0.39747
upperneck 15.9916 1.22795 -3.4013
head 7.36268 0.238087 -0.917588
rclavicle 9.00743e-015 -1.43125e-014
rhumerus 4.70269 35.3798 -86.9184
rradius 90.1481
rwrist -5.33469
rhand -27.3037 21.8359
rfingers 7.12502
rthumb -0.71339 -8.14267
lclavicle 9.00743e-015 -1.43125e-014
lhumerus 30.6102 -4.52676 58.177
lradius 56.7845
lwrist 35.0062
lhand -3.94565 24.719
lfingers 7.12502
lthumb 21.8062 53.5105
rfemur -18.301 11.7234 15.0952
rtibia 32.7923
rfoot -15.9403 -16.2037
rtoes 2.54881
lfemur -18.3124 -4.67191 -16.6887
ltibia 34.0448
lfoot -21.9706 8.74018
ltoes -11.3293
6
root 9.34085 18.1467 -5.89699 4.91967 -13.189 0.478141
lowerback 0.080877 -0.383494 -3.93726
upperback -0.01703 -0.515392 0.202608
thorax -0.0262365 -0.256994 2.41538
lowerneck -14.0723 0.480807 -0.513173
upperneck 15.8558 1.3615 -3.28639
head 7.20403 0.313486 -0.846463
rclavicle -9.30561e-015 -4.37326e-015
rhumerus 4.64975 35.8762 -87.3925
rradius 89.5702
rwrist -4.76033
rhand -27.3676 21.7875
rfingers 7.12502
rthumb -0.775151 -8.19084
lclavicle -9.30561e-015 -4.37326e-015
lhumerus 29.7144 -4.46737 58.5357
lradius 56.6158
lwrist 34.0939
lhand -4.04331 23.6419
lfingers 7.12502
lthumb 21.7124 52.4443
rfemur -18.4473 11.8661 15.5623
rtibia 32.8243
rfoot -15.6452 -16.387
rtoes 2.22549
lfemur -18.4548 -4.71126 -16.1803
ltibia 34.0327
lfoot -21.8717 8.85054
ltoes -11.4968
7
root 9.34602 18.1447 -5.89765 4.86843 -12.9638 0.535578
lowerback 0.184677 -0.203105 -3.89328
upperback 0.0496626 -0.278311 -0.000798563
thorax -0.0340707 -0.139338 2.18197
lowerneck -14.5254 0.205245 -0.0522165
upperneck 16.1001 0.897792 -3.28744
head 7.35641 0.112744 -0.97228
rclavicle -1.64743e-014 -1.05356e-014
rhumerus 5.12119 35.1751 -87.4275
rradius 88.9352
rwrist -4.41105
rhand -27.7319 21.0738
rfingers 7.12502
rthumb -1.12695 -8.90294
lclavicle -1.64743e-014 -1.05356e-014
lhumerus 29.697 -5.31181 58.9123
lradius 56.7252
lwrist 33.2212
lhand -3.00553 22.6814
lfingers 7.12502
lthumb 22.7087 51.3651
rfemur -18.3773 11.6716 15.4979
rtibia 32.8562
rfoot -15.7067 -16.4422
rtoes 2.06219
lfemur -18.4414 -4.71199 -16.2622
ltibia 34.0134
lfoot -21.6613 8.78824
ltoes -11.463
8
root 9.3535 18.1454 -5.89084 4.62773 -12.6597 1.2614
lowerback 0.115928 -0.492575 -4.52175
upperback 0.0572951 -0.661582 -0.0429576
thorax 0.0445194 -0.33283 2.49062
lowerneck -14.2872 0.259017 -0.596916
upperneck 16.0303 1.06233 -3.15738
head 7.29262 0.172716 -0.822285
rclavicle 5.57839e-015 5.56597e-015
rhumerus 5.68214 35.9356 -87.3242
rradius 88.3018
rwrist -4.45144
rhand -27.9379 20.6819
rfingers 7.12502
rthumb -1.32591 -9.29377
lclavicle 5.57839e-015 5.56597e-015
lhumerus 29.1637 -5.69234 58.4855
lradius 56.8814
lwrist 33.1647
lhand -3.09759 21.489
lfingers 7.12502
lthumb 22.6203 50.1836
rfemur -18.1973 10.8739 14.7079
rtibia 32.8717
rfoot -15.8684 -15.9862
rtoes 2.00416
lfemur -18.352 -4.72616 -17.0999
ltibia 33.996
lfoot -21.5011 8.58329
ltoes -11.1768
9
root 9.35779 18.1478 -5.90216 4.61057 -12.5281 1.47257
lowerback 0.154259 -0.167554 -4.67049
upperback 0.290478 -0.224146 -0.346124
thorax 0.22844 -0.122214 2.26214
lowerneck -15.2236 -0.104859 -0.0623813
upperneck 16.2989 0.459424 -3.12371
head 7.53524 -0.0893867 -0.966678
rclavicle -1.23246e-014 1.51076e-014
rhumerus 6.73122 34.7291 -86.9372
rradius 87.6563
rwrist -4.15238
rhand -28.4295 21.8413
rfingers 7.12502
rthumb -1.80074 -8.1308
lclavicle -1.23246e-014 1.51076e-014
lhumerus 30.0336 -6.91831 58.5737
lradius 56.9011
lwrist 32.4486
lhand -3.2762 21.0087
lfingers 7.12502
lthumb 22.4489 49.724
rfemur -18.2503 10.739 14.4645
rtibia 32.8945
rfoot -15.842 -15.9266
rtoes 2.2055
lfemur -18.445 -4.79022 -17.3225
ltibia 33.9538
lfoot -21.4129 8.54827
ltoes -11.3321
